<svg width="26" height="26" viewBox="0 0 26 26" fill="none" xmlns="http://www.w3.org/2000/svg">
<path d="M24.9092 19.8466C24.9092 20.1764 24.9096 20.5057 24.91 20.8346C24.9108 21.5698 24.9117 22.3033 24.9082 23.0377C24.9052 23.6906 24.7 24.1766 24.379 24.4986C24.0584 24.8204 23.5744 25.0265 22.9216 25.029C20.805 25.037 18.6881 25.0362 16.571 25.0294C15.9028 25.0272 15.4127 24.8182 15.0898 24.4914C14.7664 24.164 14.56 23.6669 14.5592 22.992C14.557 20.8959 14.5565 18.8 14.5594 16.7042C14.5603 16.0359 14.7684 15.5412 15.095 15.2143C15.4215 14.8874 15.9162 14.6786 16.5856 14.6771C18.6922 14.6725 20.7986 14.6719 22.9048 14.6773C23.5654 14.679 24.0534 14.8859 24.376 15.2097C24.699 15.5338 24.9057 16.0245 24.9084 16.6879C24.9114 17.4148 24.9106 18.141 24.9099 18.8687C24.9095 19.1943 24.9092 19.5202 24.9092 19.8466ZM19.7313 15.0236C19.4128 15.0236 19.094 15.0235 18.7751 15.0234C18.0293 15.0231 17.2828 15.0227 16.5366 15.0241C16.0855 15.0249 15.6561 15.1391 15.341 15.4478C15.0241 15.7584 14.9047 16.1854 14.9041 16.6364C14.9014 18.7877 14.9012 20.9391 14.9043 23.0905C14.9049 23.5384 15.0347 23.9575 15.344 24.2637C15.6526 24.5693 16.0725 24.6958 16.5188 24.6961C18.6591 24.6976 20.7994 24.6973 22.9396 24.6962C23.3975 24.696 23.8284 24.571 24.1425 24.253C24.4556 23.936 24.5775 23.5031 24.5778 23.0436C24.5791 20.9142 24.5793 18.7848 24.5777 16.6554C24.5774 16.2029 24.4567 15.7758 24.1466 15.4626C23.8359 15.1487 23.4102 15.0253 22.9588 15.0243C22.205 15.0225 21.4507 15.0229 20.6972 15.0233C20.3751 15.0235 20.0531 15.0236 19.7313 15.0236Z" fill="#231F20" stroke="#231F20"/>
<path d="M20.6941 11.3402C20.3714 11.34 20.0489 11.3398 19.7265 11.3398L20.6941 11.3402ZM20.6941 11.3402C21.4579 11.3405 22.2225 11.3409 22.9866 11.3391M20.6941 11.3402L22.9866 11.3391M22.9866 11.3391C23.4273 11.3381 23.8392 11.2046 24.1414 10.9016M22.9866 11.3391L24.1414 10.9016M24.1414 10.9016C24.4435 10.5987 24.5766 10.1859 24.5772 9.74335M24.1414 10.9016L24.5772 9.74335M24.5772 9.74335C24.5799 7.58119 24.5801 5.41896 24.577 3.25668M24.5772 9.74335L24.577 3.25668M24.577 3.25668C24.5764 2.81479 24.4414 2.40288 24.1366 2.10139M24.577 3.25668L24.1366 2.10139M24.1366 2.10139C23.8326 1.80058 23.4191 1.66857 22.9768 1.66798M24.1366 2.10139L22.9768 1.66798M22.9768 1.66798C20.8146 1.66508 18.6523 1.66479 16.49 1.66819M22.9768 1.66798L16.49 1.66819M16.49 1.66819C16.049 1.66888 15.6359 1.79917 15.3336 2.10498M16.49 1.66819L15.3336 2.10498M15.3336 2.10498C15.0321 2.40999 14.9049 2.82469 14.9043 3.26622M15.3336 2.10498L14.9043 3.26622M14.9043 3.26622C14.9011 5.42845 14.9008 7.59076 14.9044 9.75313M14.9043 3.26622L14.9044 9.75313M14.9044 9.75313C14.9052 10.1951 15.0354 10.6083 15.341 10.9105M14.9044 9.75313L15.341 10.9105M15.341 10.9105C15.6457 11.2118 16.0596 11.3383 16.4991 11.3393M15.341 10.9105L16.4991 11.3393M16.4991 11.3393C17.2603 11.3409 18.0218 11.3405 18.7826 11.3401M16.4991 11.3393L18.7826 11.3401M18.7826 11.3401C19.0974 11.34 19.4121 11.3398 19.7265 11.3398L18.7826 11.3401ZM19.7303 1.33243C20.0576 1.33243 20.3842 1.33206 20.7106 1.33169C21.4375 1.33086 22.1627 1.33004 22.8889 1.33334C23.5705 1.33644 24.0618 1.54248 24.3822 1.86313C24.7024 2.18365 24.9073 2.67413 24.9083 3.35414C24.9117 5.4499 24.9114 7.54576 24.9085 9.6417C24.9075 10.3268 24.6997 10.8251 24.3746 11.1514C24.0498 11.4774 23.554 11.6856 22.8721 11.6867C20.7872 11.6901 18.7022 11.6897 16.6171 11.6869C15.9261 11.6859 15.4248 11.4761 15.0968 11.1473C14.7687 10.8184 14.5595 10.3159 14.559 9.6238C14.5574 7.53848 14.5569 5.45332 14.5592 3.36826C14.5599 2.69091 14.7655 2.19602 15.0876 1.87081C15.4093 1.54589 15.8996 1.33745 16.5724 1.33357C17.2987 1.32938 18.0239 1.33043 18.7512 1.33148C19.077 1.33195 19.4033 1.33242 19.7303 1.33243Z" fill="#231F20" stroke="#231F20"/>
<path d="M6.39576 25.0311C6.06694 25.0311 5.73869 25.0314 5.41078 25.0318C4.68545 25.0326 3.96176 25.0334 3.23717 25.0302C2.56044 25.0271 2.06806 24.82 1.74553 24.4971C1.42312 24.1744 1.21722 23.6828 1.21622 23.0078C1.21309 20.9009 1.21233 18.7943 1.21652 16.6879C1.21783 16.0262 1.42438 15.5354 1.74776 15.2108C2.07097 14.8864 2.55961 14.6791 3.21899 14.6774C5.32523 14.6719 7.43165 14.6725 9.53826 14.6771C10.2085 14.6785 10.7033 14.8871 11.0297 15.2136C11.3561 15.5401 11.5642 16.0344 11.5652 16.7031C11.5685 18.7988 11.5678 20.8947 11.5654 22.9908C11.5646 23.6735 11.3572 24.1692 11.0319 24.4941C10.7064 24.8193 10.2086 25.0278 9.52209 25.0304C8.80043 25.0331 8.07951 25.0324 7.3572 25.0317C7.03706 25.0314 6.71664 25.0311 6.39576 25.0311ZM6.41284 15.0236C6.08976 15.0236 5.7664 15.0234 5.44287 15.0233C4.6799 15.0228 3.91597 15.0224 3.15252 15.0244C2.70704 15.0256 2.28753 15.1513 1.98021 15.4597C1.67302 15.768 1.54803 16.1884 1.54744 16.6357C1.54465 18.787 1.54434 20.9384 1.5477 23.0899C1.5484 23.5385 1.68119 23.9569 1.99077 24.2625C2.29947 24.5672 2.71913 24.6957 3.16606 24.696C5.3064 24.6976 7.44669 24.6973 9.58687 24.6962C10.0394 24.696 10.4664 24.574 10.7798 24.265C11.0944 23.9549 11.2204 23.5297 11.2209 23.0772C11.2229 20.926 11.2232 18.7747 11.2207 16.6234C11.2202 16.1777 11.0963 15.7578 10.7852 15.4511C10.4753 15.1456 10.0536 15.0254 9.60784 15.0243C8.85912 15.0225 8.10997 15.0229 7.36168 15.0233C7.04522 15.0235 6.7289 15.0236 6.41284 15.0236Z" fill="#231F20" stroke="#231F20"/>
<path d="M6.37989 1.33225C6.70283 1.33223 7.02524 1.33186 7.34733 1.33149C8.07851 1.33065 8.80805 1.32981 9.53844 1.33308C10.2162 1.33612 10.7103 1.54361 11.0342 1.86686C11.3578 2.18982 11.5642 2.68098 11.5652 3.35386C11.5684 5.46068 11.569 7.5673 11.565 9.67378C11.5637 10.3261 11.3551 10.8182 11.0272 11.1465C10.6993 11.4748 10.2072 11.6841 9.55383 11.6859C7.44768 11.6917 5.3413 11.6907 3.23461 11.6863C2.56619 11.6849 2.07408 11.4767 1.74957 11.1505C1.4248 10.824 1.21732 10.3285 1.21626 9.65592C1.21295 7.54916 1.21248 5.44252 1.21643 3.33601C1.21768 2.67136 1.42252 2.18468 1.7433 1.8641C2.06432 1.54328 2.55325 1.33706 3.22176 1.33341C3.9455 1.32946 4.66815 1.33042 5.39278 1.33139C5.72132 1.33183 6.05026 1.33227 6.37989 1.33225ZM11.2216 6.51179C11.2216 6.19354 11.2217 5.87514 11.2218 5.55665C11.2221 4.81046 11.2223 4.06373 11.2212 3.31728C11.2205 2.85941 11.1049 2.42492 10.7918 2.10684C10.4773 1.78727 10.0449 1.66773 9.58786 1.66735C7.4476 1.66554 5.30724 1.66526 3.16681 1.66754C2.71963 1.66802 2.29905 1.79401 1.98964 2.09851C1.67909 2.40413 1.54842 2.82272 1.54771 3.27026C1.54432 5.42172 1.54466 7.57311 1.54742 9.72437C1.548 10.1726 1.67476 10.5931 1.98086 10.9015C2.28754 11.2105 2.7064 11.3387 3.15223 11.3391C5.3034 11.3407 7.45453 11.3405 9.60559 11.3392C10.0519 11.339 10.4728 11.2161 10.7822 10.9109C11.0926 10.6047 11.2195 10.1856 11.2208 9.73956C11.223 8.98522 11.2225 8.23036 11.222 7.47652C11.2218 7.15472 11.2216 6.8331 11.2216 6.51179Z" fill="#231F20" stroke="#231F20"/>
</svg>
